<?xml version="1.0" encoding="UTF-8"?>
<svg xmlns="http://www.w3.org/2000/svg" width="2000" height="2000" viewBox="0 0 2000 2000">
  <title>FEI vector logo</title>
  <desc>Transparent-background vector conversion from the provided original artwork.</desc>
  <g id="mark" fill="#000000">
    <path d="M 137.0 948.0 L 140.0 953.0 L 145.0 951.0 L 180.0 869.0 L 224.0 801.0 L 304.0 718.0 L 369.0 672.0 L 467.0 630.0 L 531.0 615.0 L 589.0 611.0 L 1692.0 611.0 L 1738.0 596.0 L 1770.0 580.0 L 1809.0 550.0 L 1841.0 513.0 L 1857.0 488.0 L 1875.0 438.0 L 1877.0 397.0 L 1871.0 359.0 L 1859.0 339.0 L 1839.0 321.0 L 1797.0 312.0 L 739.0 309.0 L 523.0 313.0 L 435.0 321.0 L 356.0 351.0 L 286.0 396.0 L 233.0 445.0 L 185.0 516.0 L 156.0 585.0 L 141.0 653.0 Z"/>
    <path d="M 398.0 889.0 L 411.0 939.0 L 429.0 966.0 L 468.0 998.0 L 510.0 1012.0 L 1436.0 1012.0 L 1501.0 996.0 L 1547.0 969.0 L 1566.0 951.0 L 1595.0 915.0 L 1621.0 862.0 L 1625.0 805.0 L 1609.0 770.0 L 1594.0 755.0 L 1566.0 742.0 L 511.0 740.0 L 466.0 755.0 L 429.0 786.0 L 414.0 807.0 L 402.0 840.0 Z"/>
    <path d="M 998.0 1163.0 L 983.0 1148.0 L 950.0 1135.0 L 449.0 1135.0 L 363.0 1149.0 L 329.0 1162.0 L 282.0 1188.0 L 245.0 1217.0 L 197.0 1270.0 L 170.0 1315.0 L 145.0 1390.0 L 139.0 1577.0 L 141.0 1653.0 L 148.0 1673.0 L 174.0 1702.0 L 209.0 1713.0 L 230.0 1713.0 L 260.0 1704.0 L 282.0 1688.0 L 296.0 1670.0 L 305.0 1640.0 L 310.0 1552.0 L 327.0 1507.0 L 352.0 1469.0 L 403.0 1425.0 L 463.0 1398.0 L 512.0 1392.0 L 733.0 1394.0 L 838.0 1390.0 L 892.0 1377.0 L 941.0 1349.0 L 972.0 1316.0 L 998.0 1276.0 L 1010.0 1248.0 L 1013.0 1196.0 Z"/>
  </g>
  <g id="dot-shadow">
    <circle cx="1265.92" cy="1280.59" r="134.29" fill="#BDBDBD"/>
    <circle cx="1252.92" cy="1267.59" r="134.29" fill="#3E3E3E"/>
  </g>
  <circle id="blue-dot" cx="1234.92" cy="1249.59" r="134.29" fill="#7DD3FC"/>
</svg>
