<svg xmlns="http://www.w3.org/2000/svg" xmlns:xlink="http://www.w3.org/1999/xlink" width="500" zoomAndPan="magnify" viewBox="0 0 375 374.999991" height="500" preserveAspectRatio="xMidYMid meet" version="1.0"><defs><g/><clipPath id="be87ce12f5"><rect x="0" width="302" y="0" height="225"/></clipPath></defs><g transform="matrix(1, 0, 0, 1, 40, 91)"><g clip-path="url(#be87ce12f5)"><g fill="#facc15" fill-opacity="1"><g transform="translate(4.152979, 175.782889)"><g><path d="M 101.28125 -65.953125 C 93.082031 -65.953125 84.882812 -65.988281 76.6875 -66.0625 C 68.488281 -66.132812 60.289062 -66.171875 52.09375 -66.171875 C 49.707031 -66.171875 47.359375 -65.984375 45.046875 -65.609375 C 42.734375 -65.242188 40.6875 -64.09375 38.90625 -62.15625 C 36.96875 -60.21875 35.773438 -58.019531 35.328125 -55.5625 C 34.878906 -53.101562 34.726562 -50.90625 34.875 -48.96875 C 35.03125 -42.851562 35.109375 -36.773438 35.109375 -30.734375 C 35.109375 -24.703125 35.109375 -18.628906 35.109375 -12.515625 C 35.109375 -11.179688 35.109375 -9.84375 35.109375 -8.5 C 35.109375 -7.15625 35.109375 -5.8125 35.109375 -4.46875 C 34.953125 -3.28125 34.800781 -2.382812 34.65625 -1.78125 C 34.507812 -1.1875 33.6875 -0.816406 32.1875 -0.671875 C 28.914062 -0.523438 25.675781 -0.375 22.46875 -0.21875 C 19.257812 -0.0703125 15.941406 -0.0703125 12.515625 -0.21875 C 11.328125 -0.21875 9.648438 -0.144531 7.484375 0 C 5.328125 0.144531 3.648438 -0.078125 2.453125 -0.671875 C 1.410156 -1.265625 0.816406 -2.046875 0.671875 -3.015625 C 0.523438 -3.984375 0.453125 -5.066406 0.453125 -6.265625 C 0.597656 -30.109375 0.519531 -53.988281 0.21875 -77.90625 C -0.0703125 -101.832031 -0.0703125 -125.722656 0.21875 -149.578125 C 0.375 -151.515625 0.375 -153.9375 0.21875 -156.84375 C 0.0703125 -159.75 0.742188 -161.945312 2.234375 -163.4375 C 3.429688 -164.625 5.035156 -165.21875 7.046875 -165.21875 C 9.054688 -165.21875 10.804688 -165.21875 12.296875 -165.21875 C 20.640625 -165.21875 29.019531 -165.289062 37.4375 -165.4375 C 45.863281 -165.59375 54.253906 -165.671875 62.609375 -165.671875 C 71.097656 -165.972656 79.59375 -165.972656 88.09375 -165.671875 C 88.988281 -165.671875 90.703125 -165.707031 93.234375 -165.78125 C 95.765625 -165.851562 98.519531 -165.890625 101.5 -165.890625 C 104.476562 -165.890625 107.007812 -165.664062 109.09375 -165.21875 C 111.1875 -164.769531 112.234375 -164.023438 112.234375 -162.984375 C 112.234375 -159.109375 112.234375 -155.195312 112.234375 -151.25 C 112.234375 -147.300781 112.234375 -143.390625 112.234375 -139.515625 C 112.234375 -137.273438 111.5625 -135.929688 110.21875 -135.484375 C 108.882812 -135.035156 107.359375 -134.921875 105.640625 -135.140625 C 103.921875 -135.367188 102.316406 -135.484375 100.828125 -135.484375 C 90.992188 -135.484375 81.15625 -135.484375 71.3125 -135.484375 C 61.476562 -135.484375 51.644531 -135.484375 41.8125 -135.484375 C 40.320312 -135.484375 39.015625 -134.960938 37.890625 -133.921875 C 36.773438 -132.878906 36.21875 -131.539062 36.21875 -129.90625 L 36.21875 -101.734375 C 36.21875 -98.742188 37.410156 -97.0625 39.796875 -96.6875 C 42.179688 -96.320312 44.414062 -96.066406 46.5 -95.921875 C 49.476562 -95.921875 52.457031 -95.921875 55.4375 -95.921875 C 58.425781 -95.921875 61.335938 -95.921875 64.171875 -95.921875 C 69.828125 -95.921875 75.5625 -95.992188 81.375 -96.140625 C 87.195312 -96.285156 92.9375 -96.359375 98.59375 -96.359375 C 100.832031 -96.359375 103.03125 -96.0625 105.1875 -95.46875 C 107.351562 -94.875 108.582031 -93.234375 108.875 -90.546875 C 109.03125 -89.648438 109.066406 -88.753906 108.984375 -87.859375 C 108.910156 -86.972656 108.800781 -86.082031 108.65625 -85.1875 C 108.507812 -83.695312 108.472656 -82.164062 108.546875 -80.59375 C 108.617188 -79.03125 108.726562 -77.429688 108.875 -75.796875 C 109.03125 -74.753906 109.179688 -73.785156 109.328125 -72.890625 C 109.472656 -71.992188 109.398438 -71.023438 109.109375 -69.984375 C 108.660156 -67.148438 106.722656 -65.734375 103.296875 -65.734375 C 102.847656 -65.878906 102.175781 -65.953125 101.28125 -65.953125 Z M 101.28125 -65.953125 "/></g></g></g><g fill="#facc15" fill-opacity="1"><g transform="translate(125.330533, 175.782889)"><g><path d="M 110.21875 -165.671875 C 112.601562 -165.671875 114.242188 -165.519531 115.140625 -165.21875 C 116.035156 -164.925781 116.554688 -164.628906 116.703125 -164.328125 C 117.898438 -163.140625 118.535156 -161.6875 118.609375 -159.96875 C 118.679688 -158.257812 118.644531 -156.582031 118.5 -154.9375 C 118.34375 -152.707031 118.226562 -150.4375 118.15625 -148.125 C 118.082031 -145.8125 118.117188 -143.535156 118.265625 -141.296875 C 118.265625 -140.703125 118.265625 -140.03125 118.265625 -139.28125 C 118.265625 -138.539062 118.117188 -137.796875 117.828125 -137.046875 C 117.378906 -135.710938 116 -134.929688 113.6875 -134.703125 C 111.375 -134.484375 108.953125 -134.519531 106.421875 -134.8125 C 103.890625 -135.113281 101.953125 -135.265625 100.609375 -135.265625 C 97.179688 -135.410156 93.753906 -135.484375 90.328125 -135.484375 C 86.898438 -135.484375 83.472656 -135.484375 80.046875 -135.484375 C 73.179688 -135.484375 66.394531 -135.484375 59.6875 -135.484375 C 52.988281 -135.484375 46.207031 -135.484375 39.34375 -135.484375 C 37.851562 -135.484375 36.550781 -134.925781 35.4375 -133.8125 C 34.320312 -132.695312 33.765625 -131.316406 33.765625 -129.671875 L 33.765625 -103.515625 C 33.765625 -101.878906 34.320312 -100.5 35.4375 -99.375 C 36.550781 -98.257812 37.851562 -97.703125 39.34375 -97.703125 C 41.726562 -97.703125 44.113281 -97.703125 46.5 -97.703125 C 48.882812 -97.703125 51.269531 -97.703125 53.65625 -97.703125 C 61.851562 -97.703125 70.015625 -97.703125 78.140625 -97.703125 C 86.265625 -97.703125 94.425781 -97.773438 102.625 -97.921875 C 104.257812 -98.078125 105.410156 -97.484375 106.078125 -96.140625 C 106.753906 -94.796875 107.164062 -93.300781 107.3125 -91.65625 C 107.46875 -90.019531 107.546875 -88.609375 107.546875 -87.421875 C 107.546875 -86.078125 107.582031 -83.835938 107.65625 -80.703125 C 107.726562 -77.578125 107.503906 -74.632812 106.984375 -71.875 C 106.460938 -69.125 105.304688 -67.445312 103.515625 -66.84375 C 102.921875 -66.695312 102.25 -66.625 101.5 -66.625 C 100.757812 -66.625 100.015625 -66.625 99.265625 -66.625 C 91.816406 -67.375 84.289062 -67.671875 76.6875 -67.515625 C 69.082031 -67.367188 61.476562 -67.296875 53.875 -67.296875 C 47.019531 -67.296875 42.140625 -66.957031 39.234375 -66.28125 C 36.328125 -65.613281 34.578125 -63.972656 33.984375 -61.359375 C 33.390625 -58.753906 33.09375 -54.472656 33.09375 -48.515625 C 33.09375 -43.597656 33.273438 -39.832031 33.640625 -37.21875 C 34.015625 -34.613281 35.054688 -32.828125 36.765625 -31.859375 C 38.484375 -30.890625 41.28125 -30.328125 45.15625 -30.171875 C 49.03125 -30.023438 54.472656 -29.953125 61.484375 -29.953125 C 70.722656 -29.953125 79.890625 -29.988281 88.984375 -30.0625 C 98.078125 -30.144531 107.171875 -30.1875 116.265625 -30.1875 C 119.535156 -30.1875 121.171875 -29.066406 121.171875 -26.828125 C 121.171875 -24.585938 121.097656 -22.28125 120.953125 -19.90625 C 120.804688 -18.113281 120.695312 -16.285156 120.625 -14.421875 C 120.550781 -12.554688 120.585938 -10.65625 120.734375 -8.71875 C 120.878906 -6.1875 120.65625 -4.210938 120.0625 -2.796875 C 119.46875 -1.378906 117.601562 -0.671875 114.46875 -0.671875 C 105.820312 -0.671875 97.140625 -0.671875 88.421875 -0.671875 C 79.703125 -0.671875 70.945312 -0.671875 62.15625 -0.671875 C 54.101562 -0.816406 45.976562 -1 37.78125 -1.21875 C 29.582031 -1.445312 21.460938 -1.335938 13.421875 -0.890625 C 11.773438 -0.742188 9.984375 -0.519531 8.046875 -0.21875 C 6.109375 0.0703125 4.320312 -0.148438 2.6875 -0.890625 C 1.195312 -1.640625 0.410156 -3.390625 0.328125 -6.140625 C 0.253906 -8.898438 0.21875 -11.023438 0.21875 -12.515625 C 0.0703125 -14.898438 0 -17.25 0 -19.5625 C 0 -21.875 0 -24.222656 0 -26.609375 C 0.144531 -31.378906 0.289062 -36.1875 0.4375 -41.03125 C 0.59375 -45.875 0.671875 -50.753906 0.671875 -55.671875 C 0.671875 -71.617188 0.671875 -87.828125 0.671875 -104.296875 C 0.671875 -120.765625 0.519531 -137.125 0.21875 -153.375 C 0.21875 -158.882812 0.960938 -162.390625 2.453125 -163.890625 C 3.796875 -165.222656 5.582031 -165.890625 7.8125 -165.890625 C 10.050781 -165.890625 11.992188 -165.816406 13.640625 -165.671875 C 16.171875 -165.671875 18.664062 -165.671875 21.125 -165.671875 C 23.582031 -165.671875 26.003906 -165.597656 28.390625 -165.453125 C 33.160156 -165.296875 37.929688 -165.21875 42.703125 -165.21875 C 47.472656 -165.21875 52.164062 -165.21875 56.78125 -165.21875 C 64.6875 -165.21875 72.550781 -165.253906 80.375 -165.328125 C 88.195312 -165.410156 95.984375 -165.523438 103.734375 -165.671875 Z M 110.21875 -165.671875 "/></g></g></g><g fill="#facc15" fill-opacity="1"><g transform="translate(255.674666, 175.782889)"><g><path d="M 7.609375 -165.890625 C 7.753906 -165.890625 7.898438 -165.890625 8.046875 -165.890625 C 8.191406 -165.890625 8.34375 -165.890625 8.5 -165.890625 C 12.21875 -165.890625 15.863281 -165.851562 19.4375 -165.78125 C 23.019531 -165.707031 26.675781 -165.597656 30.40625 -165.453125 C 33.09375 -165.296875 34.4375 -164.25 34.4375 -162.3125 C 34.4375 -160.375 34.4375 -158.363281 34.4375 -156.28125 C 34.4375 -143.457031 34.4375 -130.5625 34.4375 -117.59375 C 34.4375 -104.632812 34.4375 -91.742188 34.4375 -78.921875 C 34.4375 -72.804688 34.394531 -66.65625 34.3125 -60.46875 C 34.238281 -54.289062 34.203125 -48.144531 34.203125 -42.03125 C 34.203125 -36.363281 34.535156 -30.660156 35.203125 -24.921875 C 35.878906 -19.191406 35.847656 -13.421875 35.109375 -7.609375 C 34.660156 -4.773438 33.6875 -2.945312 32.1875 -2.125 C 30.695312 -1.300781 28.539062 -0.742188 25.71875 -0.453125 C 24.375 -0.296875 22.320312 -0.179688 19.5625 -0.109375 C 16.800781 -0.0351562 13.929688 -0.1875 10.953125 -0.5625 C 7.972656 -0.9375 5.398438 -1.679688 3.234375 -2.796875 C 1.078125 -3.910156 0 -5.515625 0 -7.609375 C 0 -32.640625 0.0351562 -57.675781 0.109375 -82.71875 C 0.179688 -107.757812 0.144531 -132.800781 0 -157.84375 C 0 -160.820312 0.554688 -162.867188 1.671875 -163.984375 C 2.796875 -165.109375 4.773438 -165.742188 7.609375 -165.890625 Z M 7.609375 -165.890625 "/></g></g></g></g></g></svg>